<svg id="Layer_1" data-name="Layer 1" xmlns="http://www.w3.org/2000/svg" viewBox="0 0 569.09 122.3"><defs><style>.cls-1{fill:#a3cf3a;}.cls-1,.cls-2,.cls-3,.cls-4,.cls-5,.cls-6{fill-rule:evenodd;}.cls-2{fill:#a3ce37;}.cls-3{fill:#a4ce31;}.cls-4{fill:#ecb2be;}.cls-5{fill:#f2adcb;}.cls-6,.cls-7{fill:#f57105;}.cls-8{fill:#231f20;}</style></defs><path class="cls-1" d="M89.24,14.51c-7.19-3.71-16.3,5-24.43,6.8,3.33-14.07,21.45-17.08,42.05-12C91.32,27.79,79.1,34.58,71.07,26.65c2.39-4.86,7.86-9.35,18.17-12.14Z" transform="translate(-8.99 -7.01)"/><path class="cls-2" d="M52.59,17.47a6.15,6.15,0,0,1,6.3,6,6.31,6.31,0,0,1-12.6,0,6.15,6.15,0,0,1,6.3-6Z" transform="translate(-8.99 -7.01)"/><path class="cls-3" d="M121.93,17.08c28.29,8.3,45.15,35.5,37,71.92-5.35,16.6-15.09,27.77-32.16,35-11.82,5-17.73,5.64-30.47,3.21-36-6.87-61.13-37.92-49.65-82.79C43,89.89,59.62,111.73,86.07,119c13.07,3.61,23.12,4.13,35.68-1,43.93-17.94,50.72-78.72.18-101Z" transform="translate(-8.99 -7.01)"/><path class="cls-4" d="M75.85,18.24C62.76,24.8,54.35,32.52,49.59,41.13,43.84,34.06,37.25,28.57,32.24,26.9,36.31,31,43.61,34,46.7,44.46c-6.34,11.79-7.39,26.38-5.39,39.2,6.95,32.27,41.42,51,73.77,44.32-32.1-1.2-54.69-13.08-66-38.33C36.7,62.06,53.35,34,75.85,18.24Z" transform="translate(-8.99 -7.01)"/><path class="cls-5" d="M42.75,30.31c-6.52-3.91-12.76-7-18.13-7.5l11.24,8.66c1.47,1.14,2,1,.31,2.1-5.68,3.89-12.53,0-20-8.13L9,16.08c8.8-.42,17.36.41,25.32,4.33,3.6,1.74,6.3,5.26,8.44,9.9Z" transform="translate(-8.99 -7.01)"/><path class="cls-6" d="M74.5,82.9l20.79,0c6.43-1.75,10.19-5.5,11.41-11.17A15.3,15.3,0,0,0,103.46,59L95,77.26l-20.29.07L74.54,46.4l24.58.23,7.62,4.57c11.71,8.73,12.54,27.46-4.49,36.75-4.75,2.59-5.75,2.38-10.94,2.5l-8.49.18v16.71H74.69L74.5,82.9ZM82.82,70h7.11L96.5,53.75l-13.84-.23L82.82,70Z" transform="translate(-8.99 -7.01)"/><polygon class="cls-6" points="104 82.82 104 76.32 117.49 76.32 100.76 34.64 94.47 51.96 87.51 46.74 97.48 26.29 104.75 26.29 129.13 82.89 104 82.82 104 82.82"/><path class="cls-7" d="M186.38,37.68H176.19c-1.18,0-1.62.4-1.85,1.54l-4.06,22.86c-.22,1.14.11,1.54,1.3,1.54h4.17c1.18,0,1.62-.4,1.84-1.54l1.11-6.24h4.51c5.76,0,9.92-2.71,11-8.48s-2-9.68-7.79-9.68Zm-2.91,11.76h-3.62l1-5.37h3.62a2.09,2.09,0,0,1,2.28,2.71,3.13,3.13,0,0,1-3.24,2.66Z" transform="translate(-8.99 -7.01)"/><path class="cls-7" d="M210.64,37.68H200.12c-1.18,0-1.63.4-1.85,1.54l-4.06,22.86c-.22,1.14.11,1.54,1.29,1.54h4.18c1.18,0,1.62-.4,1.84-1.54L202.78,55h1c1.62,0,1.88.62,2.29,1.86l1.47,5c.37,1.28,1.15,1.76,3.11,1.76h4a1.22,1.22,0,0,0,1.28-1.79l-2.21-6.25A14.48,14.48,0,0,0,213,54a9.53,9.53,0,0,0,5.26-7.23c1-5.66-2-9.1-7.59-9.1Zm0,8.77a2.74,2.74,0,0,1-2.84,2.45h-4l.88-4.83h4c1.58,0,2.29.92,2,2.38Z" transform="translate(-8.99 -7.01)"/><path class="cls-7" d="M242,62.12l-4.4-23.23c-.18-1-.66-1.21-1.73-1.21h-4.18A2,2,0,0,0,229.54,39L216.91,62.12c-.55,1-.44,1.5.71,1.5h4.06c1.84,0,2.4-.4,2.95-1.54l1.29-2.63h8l.37,2.63c.11,1.14.59,1.54,2.47,1.54h3.84c1.15,0,1.55-.51,1.37-1.5Zm-9.31-12.68.59,4.28h-4.58l2.11-4.31a22.71,22.71,0,0,0,1.66-5.08h.33a22.11,22.11,0,0,0-.11,5.11Z" transform="translate(-8.99 -7.01)"/><path class="cls-7" d="M263.57,37.68H245.29c-1.18,0-1.62.4-1.84,1.54l-.6,3.28c-.18,1.17.12,1.57,1.3,1.57h5.5l-3.21,18c-.23,1.14.11,1.54,1.29,1.54h4.17c1.18,0,1.63-.4,1.85-1.54l3.21-18h5.47c1.18,0,1.66-.4,1.84-1.57l.59-3.28c.22-1.14-.11-1.54-1.29-1.54Z" transform="translate(-8.99 -7.01)"/><path class="cls-7" d="M289.38,37.68h-4.32c-1.81,0-2.36.07-3.25,1.35l-5.43,7.46L273.76,39c-.48-1.28-1-1.35-2.84-1.35h-4.29c-1.14,0-1.4.7-1,1.54l5.91,14.35L270,62.08c-.22,1.14.11,1.54,1.26,1.54h4.21a1.58,1.58,0,0,0,1.84-1.54l1.48-8.51L289.9,39.22c.66-.84.63-1.54-.52-1.54Z" transform="translate(-8.99 -7.01)"/><path class="cls-7" d="M307.57,62.12l-4.4-23.23c-.18-1-.66-1.21-1.73-1.21h-4.18A2,2,0,0,0,295.12,39L282.49,62.12c-.55,1-.44,1.5.71,1.5h4.06c1.84,0,2.4-.4,2.95-1.54l1.29-2.63h8l.37,2.63c.11,1.14.59,1.54,2.47,1.54h3.84c1.15,0,1.55-.51,1.37-1.5Zm-9.31-12.68.59,4.28h-4.58l2.11-4.31A22.71,22.71,0,0,0,298,44.33h.33a22.11,22.11,0,0,0-.11,5.11Z" transform="translate(-8.99 -7.01)"/><path class="cls-7" d="M331.56,61.83l-3.25-9.13A4.78,4.78,0,0,0,326.43,50l8.75-10.74c.74-.95.48-1.61-.63-1.61h-4.28c-1.88,0-2.25.22-3.18,1.35l-6.75,8.3h-.82L321,39.22c.23-1.14-.11-1.54-1.29-1.54H315.5c-1.18,0-1.63.4-1.85,1.54l-4.06,22.86c-.22,1.14.11,1.54,1.29,1.54h4.18c1.18,0,1.62-.4,1.84-1.54l1.48-8.36H319c1.4,0,1.84.66,2.21,1.82l2.07,6.54c.44,1.28,1,1.54,3,1.54h4a1.23,1.23,0,0,0,1.29-1.79Z" transform="translate(-8.99 -7.01)"/><path class="cls-7" d="M335.49,44.7c-1.21,7.12,4.5,8.47,8.71,9,2.37.33,4.22.74,4,2.16-.3,1.57-1.85,2.08-4.36,2.08-2.07,0-3.36-.65-3.81-1.93-.37-1.06-.85-1.17-2-.81l-3.68,1.24c-1.15.41-1.55.92-1.37,2,.74,3.73,4.65,5.67,10.15,5.67,6.84,0,11.46-2.31,12.45-7.68,1.22-6.68-4.06-8.58-8.2-9.16-2.66-.33-4.73-.66-4.47-2.23.22-1.28,1.33-1.9,3.84-1.9,1.7,0,2.92.51,3.4,1.9.41,1.06.78,1.2,1.85.76l3.66-1.42c1.18-.48,1.48-.84,1.11-1.9-1.11-3.4-3.66-5.41-9.13-5.41-7.06,0-11.19,2.74-12.08,7.57Z" transform="translate(-8.99 -7.01)"/><path class="cls-7" d="M381.55,37.64h-4.21c-1.15,0-1.63.41-1.85,1.58l-1.44,8.07h-7.13l1.44-8.07c.23-1.17-.11-1.58-1.29-1.58H362.9c-1.18,0-1.62.41-1.85,1.58L357,62.08c-.18,1.14.12,1.54,1.3,1.54h4.17c1.18,0,1.66-.4,1.85-1.54l1.51-8.4h7.13l-1.48,8.4c-.22,1.14.11,1.54,1.29,1.54h4.17c1.19,0,1.63-.4,1.85-1.54l4.06-22.86c.22-1.17-.11-1.58-1.25-1.58Z" transform="translate(-8.99 -7.01)"/><path class="cls-7" d="M411.9,61.85l-4.39-23.24c-.19-1-.67-1.2-1.74-1.2H401.6a2,2,0,0,0-2.14,1.28L386.83,61.85c-.55,1-.44,1.49.7,1.49h4.06c1.85,0,2.4-.4,3-1.53l1.29-2.63h8l.37,2.63c.11,1.13.59,1.53,2.48,1.53h3.84c1.14,0,1.55-.51,1.36-1.49Zm-9.3-12.68.59,4.27h-4.58l2.1-4.31a22.28,22.28,0,0,0,1.67-5.07h.33a21.49,21.49,0,0,0-.11,5.11Z" transform="translate(-8.99 -7.01)"/><path class="cls-7" d="M436.07,37.41h-4.32c-1.81,0-2.36.07-3.25,1.35l-5.43,7.45-2.62-7.45c-.48-1.28-1-1.35-2.84-1.35h-4.29c-1.14,0-1.4.69-1,1.53L418.2,53.3l-1.48,8.51c-.22,1.13.11,1.53,1.26,1.53h4.21A1.58,1.58,0,0,0,424,61.81l1.48-8.51,11.08-14.36c.66-.84.63-1.53-.52-1.53Z" transform="translate(-8.99 -7.01)"/><path class="cls-7" d="M443,54.14l2.73-15.2c.22-1.13-.11-1.53-1.29-1.53H440.3a1.57,1.57,0,0,0-1.85,1.53L435.9,53.19c-1.1,6.14,2.07,10.7,9.38,10.7s11.55-3.36,12.66-9.5l2.77-15.45c.22-1.13-.15-1.53-1.3-1.53h-4.2a1.55,1.55,0,0,0-1.81,1.53l-2.73,15.2c-.37,2.15-1.85,3.36-4.4,3.36s-3.61-1.21-3.24-3.36Z" transform="translate(-8.99 -7.01)"/><path class="cls-7" d="M476.6,37.41H466.08a1.57,1.57,0,0,0-1.85,1.53l-4.06,22.87c-.22,1.13.11,1.53,1.29,1.53h4.18c1.18,0,1.62-.4,1.84-1.53l1.26-7.09h1c1.62,0,1.88.62,2.29,1.87l1.47,5c.37,1.28,1.15,1.75,3.11,1.75h4a1.22,1.22,0,0,0,1.28-1.79l-2.21-6.24a12.93,12.93,0,0,0-.69-1.57,9.53,9.53,0,0,0,5.26-7.24c1-5.66-2-9.09-7.59-9.09Zm0,8.76a2.74,2.74,0,0,1-2.84,2.45h-4l.88-4.82h4c1.58,0,2.28.91,2,2.37Z" transform="translate(-8.99 -7.01)"/><path class="cls-7" d="M510,37.41h-4.28c-1.81,0-2.36.4-2.88,1.53l-5.79,12.53a26.17,26.17,0,0,0-1.55,4.68h-.34a28.44,28.44,0,0,0,0-4.71l-1.29-12.5c-.07-1.13-.63-1.53-2.44-1.53H487.3c-1.1,0-1.51.51-1.32,1.49l4,23.24c.19,1,.63,1.2,1.7,1.2h4.66a2,2,0,0,0,2.14-1.27L510.74,38.9c.55-1,.41-1.49-.74-1.49Z" transform="translate(-8.99 -7.01)"/><path class="cls-7" d="M530.1,37.41H514.63c-1.18,0-1.62.4-1.85,1.53l-4.06,22.87c-.23,1.13.11,1.53,1.29,1.53h15.77c1.18,0,1.66-.4,1.85-1.53l.59-3.32c.22-1.17-.11-1.54-1.26-1.54H516.88l.63-3.51h7.79c1.18,0,1.63-.4,1.85-1.57l.59-3.28c.18-1.14-.11-1.54-1.29-1.54h-7.8l.6-3.25H529c1.15,0,1.63-.4,1.85-1.57l.59-3.29c.19-1.13-.15-1.53-1.33-1.53Z" transform="translate(-8.99 -7.01)"/><path class="cls-7" d="M545.33,37.41h-9c-1.18,0-1.62.4-1.84,1.53l-4.06,22.87c-.23,1.13.11,1.53,1.29,1.53h9.08c7.31,0,11.85-3.36,13-9.68l1-5.48c1.15-6.32-2.14-10.77-9.44-10.77Zm2.21,10.34L546.62,53c-.48,2.59-2,3.94-5,3.94h-3L541,43.8h3c3,0,4.06,1.35,3.58,4Z" transform="translate(-8.99 -7.01)"/><path class="cls-7" d="M578,61.85l-4.39-23.24c-.19-1-.67-1.2-1.74-1.2h-4.17a2,2,0,0,0-2.14,1.28L553,61.85c-.56,1-.44,1.49.7,1.49h4.06c1.85,0,2.4-.4,3-1.53L562,59.18h8l.37,2.63c.11,1.13.59,1.53,2.47,1.53h3.85c1.14,0,1.55-.51,1.36-1.49Zm-9.3-12.68.59,4.27h-4.58l2.1-4.31a22.55,22.55,0,0,0,1.66-5.07h.34a21.49,21.49,0,0,0-.11,5.11Z" transform="translate(-8.99 -7.01)"/><path class="cls-8" d="M193.3,90.73c0,.21,0,.39,0,.53a1.34,1.34,0,0,1-.09.36.43.43,0,0,1-.14.21.32.32,0,0,1-.19.07h-6.55a.92.92,0,0,1-.61-.21.83.83,0,0,1-.25-.68V78.5a.31.31,0,0,1,.07-.2.54.54,0,0,1,.24-.13,2,2,0,0,1,.45-.09,6.81,6.81,0,0,1,.7,0,6.88,6.88,0,0,1,.71,0,2,2,0,0,1,.44.09.54.54,0,0,1,.24.13.31.31,0,0,1,.07.2V89.58h4.49a.31.31,0,0,1,.19.06.4.4,0,0,1,.14.2,1.17,1.17,0,0,1,.09.35c0,.14,0,.32,0,.54Z" transform="translate(-8.99 -7.01)"/><path class="cls-8" d="M204,86.51a1,1,0,0,1-.22.72.82.82,0,0,1-.63.24h-6a3.8,3.8,0,0,0,.15,1.1,2.19,2.19,0,0,0,.47.83,2.12,2.12,0,0,0,.84.53,3.75,3.75,0,0,0,1.23.18,7.92,7.92,0,0,0,1.28-.1,9.79,9.79,0,0,0,1-.23c.27-.08.49-.16.66-.22a1.34,1.34,0,0,1,.43-.11.28.28,0,0,1,.28.17.9.9,0,0,1,.06.27,2.89,2.89,0,0,1,0,.44c0,.16,0,.29,0,.4a1.7,1.7,0,0,1,0,.28.52.52,0,0,1-.06.2.79.79,0,0,1-.12.15,1.33,1.33,0,0,1-.39.21,5.45,5.45,0,0,1-.82.25,9.45,9.45,0,0,1-1.13.22,9.8,9.8,0,0,1-1.37.1,7.63,7.63,0,0,1-2.31-.32,4.37,4.37,0,0,1-1.65-1,3.91,3.91,0,0,1-1-1.64,7.38,7.38,0,0,1-.33-2.32,7,7,0,0,1,.34-2.28,4.77,4.77,0,0,1,1-1.73,4.28,4.28,0,0,1,1.58-1.08,5.66,5.66,0,0,1,2.11-.37,5.81,5.81,0,0,1,2.12.35,3.8,3.8,0,0,1,1.44,1,3.94,3.94,0,0,1,.83,1.47,6.13,6.13,0,0,1,.26,1.85v.43Zm-2.69-.76a2.67,2.67,0,0,0-.47-1.78,1.83,1.83,0,0,0-1.55-.64,2.06,2.06,0,0,0-.93.19,1.85,1.85,0,0,0-.65.52,2.12,2.12,0,0,0-.4.76,3.63,3.63,0,0,0-.16,1Z" transform="translate(-8.99 -7.01)"/><path class="cls-8" d="M211.93,90.6a3.32,3.32,0,0,1-.06.72.71.71,0,0,1-.16.35.9.9,0,0,1-.29.18A2.77,2.77,0,0,1,211,92a4.37,4.37,0,0,1-.56.09c-.2,0-.41,0-.62,0a4.65,4.65,0,0,1-1.43-.2,2.36,2.36,0,0,1-1-.62,2.53,2.53,0,0,1-.58-1.06,5.23,5.23,0,0,1-.19-1.51V83.85h-1.2a.34.34,0,0,1-.32-.25,2.38,2.38,0,0,1-.11-.84c0-.21,0-.38,0-.52a1.09,1.09,0,0,1,.09-.34.44.44,0,0,1,.14-.18.38.38,0,0,1,.19,0h1.19V79.54a.33.33,0,0,1,.06-.19.49.49,0,0,1,.22-.14,1.88,1.88,0,0,1,.43-.09,6.75,6.75,0,0,1,.68,0,6.54,6.54,0,0,1,.67,0,1.77,1.77,0,0,1,.43.09.49.49,0,0,1,.22.14.28.28,0,0,1,.07.19v2.13h2.14a.38.38,0,0,1,.19,0,.44.44,0,0,1,.14.18,1.13,1.13,0,0,1,.08.34,3.74,3.74,0,0,1,0,.52,2.38,2.38,0,0,1-.11.84c-.08.17-.18.25-.32.25h-2.15v4.46a2.17,2.17,0,0,0,.25,1.17,1,1,0,0,0,.91.39,1.51,1.51,0,0,0,.39,0,1.35,1.35,0,0,0,.32-.09,1,1,0,0,0,.23-.08.59.59,0,0,1,.17,0,.28.28,0,0,1,.13,0,.24.24,0,0,1,.09.15,2.6,2.6,0,0,1,.06.3,3.28,3.28,0,0,1,0,.49Z" transform="translate(-8.99 -7.01)"/><path class="cls-8" d="M217.8,78.11a5.92,5.92,0,0,1,0,.76,3.52,3.52,0,0,1-.15.66,4,4,0,0,1-.25.6,4.68,4.68,0,0,1-.39.6l-1.48,2a1,1,0,0,1-.18.18.78.78,0,0,1-.22.12,1,1,0,0,1-.32.07,3.4,3.4,0,0,1-.48,0,3.87,3.87,0,0,1-.52,0,.76.76,0,0,1-.29-.07.16.16,0,0,1-.09-.15.38.38,0,0,1,0-.2l1.36-3V78.11a1.57,1.57,0,0,1,.09-.58.7.7,0,0,1,.28-.35,1,1,0,0,1,.47-.16,4.64,4.64,0,0,1,.7,0,4.16,4.16,0,0,1,.66,0,1,1,0,0,1,.46.16.74.74,0,0,1,.27.35,1.84,1.84,0,0,1,.08.58Z" transform="translate(-8.99 -7.01)"/><path class="cls-8" d="M226.05,88.85a3,3,0,0,1-.32,1.42,2.7,2.7,0,0,1-.89,1,4.15,4.15,0,0,1-1.36.62,6.54,6.54,0,0,1-1.7.21,7.23,7.23,0,0,1-1.06-.08,8.59,8.59,0,0,1-.9-.21,5.83,5.83,0,0,1-.66-.25,1.55,1.55,0,0,1-.39-.25.68.68,0,0,1-.18-.35,2.46,2.46,0,0,1-.07-.7,3.33,3.33,0,0,1,0-.49,2.6,2.6,0,0,1,.06-.3.27.27,0,0,1,.12-.15.27.27,0,0,1,.16,0,.88.88,0,0,1,.36.14,6.54,6.54,0,0,0,.59.29,5.63,5.63,0,0,0,.83.3,3.49,3.49,0,0,0,1.06.14,2.7,2.7,0,0,0,.67-.07,1.49,1.49,0,0,0,.51-.22.93.93,0,0,0,.33-.35,1.07,1.07,0,0,0,.11-.49.79.79,0,0,0-.21-.55,2.11,2.11,0,0,0-.54-.4,7.17,7.17,0,0,0-.77-.32c-.28-.1-.57-.2-.87-.33s-.59-.26-.88-.41a3.56,3.56,0,0,1-.76-.58,2.73,2.73,0,0,1-.54-.81,2.9,2.9,0,0,1-.21-1.16,2.93,2.93,0,0,1,.28-1.25,2.85,2.85,0,0,1,.8-1,3.87,3.87,0,0,1,1.27-.63,5.84,5.84,0,0,1,1.68-.22,6.58,6.58,0,0,1,.9.06,7.06,7.06,0,0,1,.8.16,4.59,4.59,0,0,1,.6.21,2,2,0,0,1,.35.19.45.45,0,0,1,.15.16.71.71,0,0,1,.06.19,1.7,1.7,0,0,1,0,.28c0,.11,0,.24,0,.41s0,.35,0,.47a1.43,1.43,0,0,1-.05.28.26.26,0,0,1-.11.15.37.37,0,0,1-.15,0,.7.7,0,0,1-.32-.11,5.58,5.58,0,0,0-.52-.23,5.37,5.37,0,0,0-.74-.24,3.4,3.4,0,0,0-.95-.11,2.49,2.49,0,0,0-.65.07,1.31,1.31,0,0,0-.46.21.75.75,0,0,0-.26.33.89.89,0,0,0-.09.39.79.79,0,0,0,.21.56,1.8,1.8,0,0,0,.55.39,7.39,7.39,0,0,0,.78.32l.89.32a8,8,0,0,1,.89.42,3.13,3.13,0,0,1,.78.57,2.7,2.7,0,0,1,.55.81,2.78,2.78,0,0,1,.21,1.13Z" transform="translate(-8.99 -7.01)"/><path class="cls-8" d="M239.08,90.6a3.32,3.32,0,0,1-.06.72.71.71,0,0,1-.16.35.72.72,0,0,1-.29.18,2.28,2.28,0,0,1-.46.14,4.1,4.1,0,0,1-.56.09,6.08,6.08,0,0,1-.61,0,4.77,4.77,0,0,1-1.44-.2,2.43,2.43,0,0,1-1-.62,2.53,2.53,0,0,1-.58-1.06,5.6,5.6,0,0,1-.19-1.51V83.85h-1.19a.34.34,0,0,1-.32-.25,2.13,2.13,0,0,1-.12-.84,3.74,3.74,0,0,1,0-.52,1.09,1.09,0,0,1,.09-.34.42.42,0,0,1,.13-.18.46.46,0,0,1,.2,0h1.18V79.54a.33.33,0,0,1,.06-.19.56.56,0,0,1,.22-.14,2,2,0,0,1,.44-.09,6.54,6.54,0,0,1,.67,0,6.75,6.75,0,0,1,.68,0,1.88,1.88,0,0,1,.43.09.64.64,0,0,1,.22.14.33.33,0,0,1,.06.19v2.13h2.14a.36.36,0,0,1,.19,0,.37.37,0,0,1,.14.18,1.09,1.09,0,0,1,.09.34,4,4,0,0,1,0,.52,2.16,2.16,0,0,1-.11.84.34.34,0,0,1-.32.25H236.5v4.46a2.16,2.16,0,0,0,.26,1.17,1,1,0,0,0,.9.39,1.64,1.64,0,0,0,.4,0,1.4,1.4,0,0,0,.31-.09,1,1,0,0,0,.23-.08l.17,0a.28.28,0,0,1,.13,0,.3.3,0,0,1,.1.15,2.6,2.6,0,0,1,.06.3,3.48,3.48,0,0,1,0,.49Z" transform="translate(-8.99 -7.01)"/><path class="cls-8" d="M250.43,91.54a.37.37,0,0,1-.05.18.4.4,0,0,1-.2.14,2,2,0,0,1-.36.08l-.57,0-.59,0a2,2,0,0,1-.36-.08.41.41,0,0,1-.19-.14.37.37,0,0,1-.05-.18v-1.1a6.12,6.12,0,0,1-1.67,1.27,3.9,3.9,0,0,1-1.75.43,4.11,4.11,0,0,1-1.71-.32,3.07,3.07,0,0,1-1.12-.88,3.62,3.62,0,0,1-.61-1.28,7.75,7.75,0,0,1-.18-1.82V82a.33.33,0,0,1,.06-.19.55.55,0,0,1,.22-.13,3,3,0,0,1,.44-.08,6.19,6.19,0,0,1,.67,0,6.06,6.06,0,0,1,.67,0,2.78,2.78,0,0,1,.43.08.53.53,0,0,1,.23.13.33.33,0,0,1,.06.19V87.4a5.26,5.26,0,0,0,.1,1.13,1.94,1.94,0,0,0,.31.68,1.39,1.39,0,0,0,.52.44,1.67,1.67,0,0,0,.73.15,1.85,1.85,0,0,0,1.07-.37,6.2,6.2,0,0,0,1.14-1.08V82a.33.33,0,0,1,.06-.19.61.61,0,0,1,.23-.13,2.63,2.63,0,0,1,.42-.08,6.19,6.19,0,0,1,.67,0,6.26,6.26,0,0,1,.68,0,2.63,2.63,0,0,1,.42.08.64.64,0,0,1,.22.13.33.33,0,0,1,.06.19v9.51Z" transform="translate(-8.99 -7.01)"/><path class="cls-8" d="M259.57,82.92a5.22,5.22,0,0,1,0,.62,1.6,1.6,0,0,1-.06.39.39.39,0,0,1-.12.19.27.27,0,0,1-.18,0,.51.51,0,0,1-.2,0l-.25-.08-.3-.08a2.22,2.22,0,0,0-.37,0,1.25,1.25,0,0,0-.46.09,1.71,1.71,0,0,0-.48.28,3.52,3.52,0,0,0-.52.51,7.37,7.37,0,0,0-.59.79v5.93a.3.3,0,0,1-.06.18.45.45,0,0,1-.23.14,2.87,2.87,0,0,1-.42.08l-.68,0-.67,0a2.42,2.42,0,0,1-.42-.08.45.45,0,0,1-.23-.14.26.26,0,0,1-.07-.18V82a.33.33,0,0,1,.06-.19.42.42,0,0,1,.19-.13,2.33,2.33,0,0,1,.37-.08,4.56,4.56,0,0,1,.57,0,4.8,4.8,0,0,1,.59,0,2,2,0,0,1,.36.08.52.52,0,0,1,.18.13.33.33,0,0,1,.06.19v1.18a7.93,7.93,0,0,1,.72-.87,3.84,3.84,0,0,1,.66-.55,1.81,1.81,0,0,1,.62-.28,2.57,2.57,0,0,1,.62-.08h.31l.34.06a2,2,0,0,1,.31.08.92.92,0,0,1,.2.1l.08.12a.56.56,0,0,1,0,.18,1.83,1.83,0,0,1,0,.33c0,.15,0,.35,0,.61Z" transform="translate(-8.99 -7.01)"/><path class="cls-8" d="M270.69,91.54a.31.31,0,0,1-.07.18.47.47,0,0,1-.22.14,2.78,2.78,0,0,1-.43.08l-.67,0-.68,0a2.78,2.78,0,0,1-.43-.08.47.47,0,0,1-.22-.14.31.31,0,0,1-.07-.18V86.12a4.48,4.48,0,0,0-.1-1.09,2.07,2.07,0,0,0-.3-.67,1.38,1.38,0,0,0-.52-.44,1.54,1.54,0,0,0-.73-.16,1.89,1.89,0,0,0-1.07.38,5.56,5.56,0,0,0-1.12,1.08v6.32a.31.31,0,0,1-.07.18.45.45,0,0,1-.23.14,2.63,2.63,0,0,1-.42.08l-.67,0-.68,0a2.63,2.63,0,0,1-.42-.08.45.45,0,0,1-.23-.14.31.31,0,0,1-.07-.18V82a.33.33,0,0,1,.06-.19.46.46,0,0,1,.2-.13,2.33,2.33,0,0,1,.37-.08,4.45,4.45,0,0,1,.57,0,4.62,4.62,0,0,1,.58,0,1.64,1.64,0,0,1,.36.08.38.38,0,0,1,.18.13.33.33,0,0,1,.06.19v1.1a6.29,6.29,0,0,1,1.66-1.28,4.24,4.24,0,0,1,3.46-.1,3,3,0,0,1,1.12.87,3.54,3.54,0,0,1,.61,1.28,7.49,7.49,0,0,1,.19,1.77v5.87Z" transform="translate(-8.99 -7.01)"/><path class="cls-8" d="M284.46,86.67v4.84a.31.31,0,0,1-.07.2.54.54,0,0,1-.24.13,2,2,0,0,1-.45.09,8.3,8.3,0,0,1-1.41,0,2.23,2.23,0,0,1-.45-.09.45.45,0,0,1-.23-.13.31.31,0,0,1-.07-.2V86.67l-3.92-7.51a5.07,5.07,0,0,1-.27-.62.3.3,0,0,1,.07-.33.8.8,0,0,1,.47-.13c.23,0,.54,0,.95,0l.81,0a2.37,2.37,0,0,1,.48.08.71.71,0,0,1,.26.15,1.83,1.83,0,0,1,.15.25l1.6,3.39c.16.33.31.67.46,1s.31.74.47,1.14h0c.14-.38.28-.75.43-1.12l.43-1,1.57-3.36a.81.81,0,0,1,.14-.28.52.52,0,0,1,.25-.16,2,2,0,0,1,.45-.09l.76,0c.42,0,.75,0,1,0a.86.86,0,0,1,.48.13.33.33,0,0,1,.06.34,5.07,5.07,0,0,1-.27.61l-3.91,7.51Z" transform="translate(-8.99 -7.01)"/><path class="cls-8" d="M298.42,86.69a7.07,7.07,0,0,1-.33,2.21,4.69,4.69,0,0,1-1,1.72,4.36,4.36,0,0,1-1.69,1.12,7.37,7.37,0,0,1-4.67,0,4,4,0,0,1-2.56-2.67,7.24,7.24,0,0,1-.31-2.23,6.8,6.8,0,0,1,.34-2.22,4.6,4.6,0,0,1,1-1.73,4.69,4.69,0,0,1,1.69-1.11,6.54,6.54,0,0,1,2.37-.39,7.19,7.19,0,0,1,2.3.34,4,4,0,0,1,2.55,2.67,7.33,7.33,0,0,1,.31,2.25Zm-2.85.1a6.43,6.43,0,0,0-.12-1.29,2.88,2.88,0,0,0-.4-1,1.91,1.91,0,0,0-.73-.68,2.4,2.4,0,0,0-1.16-.25,2.61,2.61,0,0,0-1.09.22,2,2,0,0,0-.77.64,3,3,0,0,0-.45,1,5.58,5.58,0,0,0-.15,1.35,6.43,6.43,0,0,0,.12,1.29,3.31,3.31,0,0,0,.4,1,1.87,1.87,0,0,0,.74.68,2.48,2.48,0,0,0,1.15.24,2.51,2.51,0,0,0,1.1-.22,2,2,0,0,0,.77-.63,2.82,2.82,0,0,0,.44-1,5.46,5.46,0,0,0,.15-1.35Z" transform="translate(-8.99 -7.01)"/><path class="cls-8" d="M310,91.54a.3.3,0,0,1-.06.18.33.33,0,0,1-.19.14,2,2,0,0,1-.36.08l-.57,0-.59,0a2,2,0,0,1-.36-.08.41.41,0,0,1-.19-.14.29.29,0,0,1,0-.18v-1.1a6.27,6.27,0,0,1-1.67,1.27,3.9,3.9,0,0,1-1.75.43,4.11,4.11,0,0,1-1.71-.32,3,3,0,0,1-1.12-.88,3.45,3.45,0,0,1-.61-1.28,7.75,7.75,0,0,1-.18-1.82V82a.33.33,0,0,1,.06-.19.55.55,0,0,1,.22-.13,2.72,2.72,0,0,1,.44-.08,7.5,7.5,0,0,1,1.34,0,2.78,2.78,0,0,1,.43.08.49.49,0,0,1,.22.13.28.28,0,0,1,.07.19V87.4a5.26,5.26,0,0,0,.1,1.13,1.94,1.94,0,0,0,.31.68,1.32,1.32,0,0,0,.52.44,1.64,1.64,0,0,0,.73.15,1.85,1.85,0,0,0,1.07-.37,6.53,6.53,0,0,0,1.14-1.08V82a.33.33,0,0,1,.06-.19.49.49,0,0,1,.22-.13,2.78,2.78,0,0,1,.43-.08,6.06,6.06,0,0,1,.67,0,6.39,6.39,0,0,1,.68,0,2.47,2.47,0,0,1,.41.08.49.49,0,0,1,.22.13A.28.28,0,0,1,310,82v9.51Z" transform="translate(-8.99 -7.01)"/><path class="cls-8" d="M319.1,82.92a5.54,5.54,0,0,1,0,.62,2.31,2.31,0,0,1-.06.39.39.39,0,0,1-.12.19.27.27,0,0,1-.18,0,.51.51,0,0,1-.2,0l-.25-.08L318,84a2.22,2.22,0,0,0-.37,0,1.25,1.25,0,0,0-.46.09,1.91,1.91,0,0,0-.49.28,4.09,4.09,0,0,0-.52.51,9.1,9.1,0,0,0-.58.79v5.93a.26.26,0,0,1-.07.18.42.42,0,0,1-.22.14,2.87,2.87,0,0,1-.42.08l-.68,0-.67,0a2.78,2.78,0,0,1-.43-.08.42.42,0,0,1-.22-.14.26.26,0,0,1-.07-.18V82a.33.33,0,0,1,.06-.19.42.42,0,0,1,.19-.13,2.33,2.33,0,0,1,.37-.08,4.45,4.45,0,0,1,.57,0,4.8,4.8,0,0,1,.59,0,2,2,0,0,1,.36.08.52.52,0,0,1,.18.13.32.32,0,0,1,.05.19v1.18a9.2,9.2,0,0,1,.73-.87,4.23,4.23,0,0,1,.65-.55,1.94,1.94,0,0,1,.63-.28,2.57,2.57,0,0,1,.62-.08h.3l.35.06.31.08a.65.65,0,0,1,.19.1.47.47,0,0,1,.09.12,1.06,1.06,0,0,1,.05.18,2.06,2.06,0,0,1,0,.33c0,.15,0,.35,0,.61Z" transform="translate(-8.99 -7.01)"/><path class="cls-8" d="M337.79,90.85a3.46,3.46,0,0,1,.17.61.38.38,0,0,1-.09.34.77.77,0,0,1-.43.14l-.85,0h-.88a2.25,2.25,0,0,1-.48-.07.45.45,0,0,1-.23-.13.62.62,0,0,1-.11-.23L334,88.76h-5.39l-.9,2.69a.83.83,0,0,1-.12.25.45.45,0,0,1-.23.16,2,2,0,0,1-.45.08l-.77,0c-.34,0-.61,0-.8,0a.59.59,0,0,1-.39-.15.38.38,0,0,1-.08-.35,3.92,3.92,0,0,1,.16-.6l4.41-12.23a.87.87,0,0,1,.15-.29.58.58,0,0,1,.28-.17,2.84,2.84,0,0,1,.54-.08h1.94a3.64,3.64,0,0,1,.61.08.55.55,0,0,1,.3.18,1,1,0,0,1,.16.32l4.42,12.21Zm-6.56-10.11h0l-2,5.86h4l-2-5.86Z" transform="translate(-8.99 -7.01)"/><path class="cls-8" d="M356.45,91.51a.36.36,0,0,1-.06.2.5.5,0,0,1-.23.13,1.67,1.67,0,0,1-.42.09,6.39,6.39,0,0,1-.68,0,6,6,0,0,1-.66,0,1.88,1.88,0,0,1-.43-.09.51.51,0,0,1-.22-.13.36.36,0,0,1-.06-.2V80.3h0l-4.13,11.2a.49.49,0,0,1-.14.23.76.76,0,0,1-.27.15,2.14,2.14,0,0,1-.43.07h-.64l-.65,0a2,2,0,0,1-.43-.09.84.84,0,0,1-.27-.14.49.49,0,0,1-.14-.21l-4-11.2h0V91.51a.31.31,0,0,1-.07.2.41.41,0,0,1-.22.13,2,2,0,0,1-.43.09,7.5,7.5,0,0,1-1.34,0,1.78,1.78,0,0,1-.42-.09.41.41,0,0,1-.22-.13.31.31,0,0,1-.07-.2V79.23a1,1,0,0,1,1.1-1.11h1.9a3.77,3.77,0,0,1,.88.08,1.78,1.78,0,0,1,.63.26,1.49,1.49,0,0,1,.44.49,3.53,3.53,0,0,1,.31.75l3.08,8.21h.05l3.19-8.19a3.86,3.86,0,0,1,.31-.75,1.87,1.87,0,0,1,.4-.5,1.25,1.25,0,0,1,.54-.27,2.55,2.55,0,0,1,.72-.08h2a1.53,1.53,0,0,1,.51.07.93.93,0,0,1,.57.57,1.72,1.72,0,0,1,.07.47V91.51Z" transform="translate(-8.99 -7.01)"/><path class="cls-8" d="M369.91,87.76a4,4,0,0,1-.21,1.33,3.51,3.51,0,0,1-.58,1.06,4.17,4.17,0,0,1-.88.79,5.13,5.13,0,0,1-1.13.54,6.88,6.88,0,0,1-1.32.31,10.6,10.6,0,0,1-1.56.11h-3.8a.9.9,0,0,1-.61-.21.83.83,0,0,1-.25-.68V79a.83.83,0,0,1,.25-.68.9.9,0,0,1,.61-.2H364a10,10,0,0,1,2.22.21,4.47,4.47,0,0,1,1.53.64,2.87,2.87,0,0,1,1,1.09,3.44,3.44,0,0,1,.33,1.55,3.63,3.63,0,0,1-.13,1,2.83,2.83,0,0,1-.39.8,2.89,2.89,0,0,1-.62.64,3.74,3.74,0,0,1-.84.45,3.78,3.78,0,0,1,1.12.37,3.23,3.23,0,0,1,1.5,1.67,3.64,3.64,0,0,1,.22,1.27ZM366.15,82a2,2,0,0,0-.13-.74,1.31,1.31,0,0,0-.4-.55,1.72,1.72,0,0,0-.66-.34,4.42,4.42,0,0,0-1.08-.11h-1.46v3.57H364a2.76,2.76,0,0,0,1-.14,1.83,1.83,0,0,0,.62-.39,1.59,1.59,0,0,0,.37-.59,2.08,2.08,0,0,0,.12-.71Zm.75,5.91a2.13,2.13,0,0,0-.17-.86,1.66,1.66,0,0,0-.48-.63,2.41,2.41,0,0,0-.82-.4,5,5,0,0,0-1.29-.14h-1.72v3.93h2.1a3.76,3.76,0,0,0,1-.12,2.09,2.09,0,0,0,.71-.37,1.73,1.73,0,0,0,.48-.59,1.94,1.94,0,0,0,.17-.82Z" transform="translate(-8.99 -7.01)"/><path class="cls-8" d="M375.17,91.51a.31.31,0,0,1-.07.2.54.54,0,0,1-.24.13,2,2,0,0,1-.44.09,6.88,6.88,0,0,1-.71,0,6.81,6.81,0,0,1-.7,0,2,2,0,0,1-.45-.09.54.54,0,0,1-.24-.13.31.31,0,0,1-.07-.2v-13a.31.31,0,0,1,.07-.2.53.53,0,0,1,.25-.13,2,2,0,0,1,.44-.09,6.81,6.81,0,0,1,.7,0,6.88,6.88,0,0,1,.71,0,2,2,0,0,1,.44.09.54.54,0,0,1,.24.13.31.31,0,0,1,.07.2v13Z" transform="translate(-8.99 -7.01)"/><path class="cls-8" d="M387.79,79.26a3.89,3.89,0,0,1,0,.53,1.67,1.67,0,0,1-.08.35.54.54,0,0,1-.14.2.32.32,0,0,1-.18.06h-3.58V91.51a.31.31,0,0,1-.07.2.54.54,0,0,1-.24.13,2,2,0,0,1-.45.09,6.67,6.67,0,0,1-.7,0,6.81,6.81,0,0,1-.7,0,2,2,0,0,1-.45-.09.54.54,0,0,1-.24-.13.37.37,0,0,1-.07-.2V80.4h-3.57a.31.31,0,0,1-.19-.06.53.53,0,0,1-.13-.2,1.17,1.17,0,0,1-.09-.35c0-.14,0-.32,0-.53s0-.39,0-.54a1.17,1.17,0,0,1,.09-.35.53.53,0,0,1,.13-.2.3.3,0,0,1,.19,0h10.07a.31.31,0,0,1,.18,0,.54.54,0,0,1,.14.2,1.67,1.67,0,0,1,.08.35,4.16,4.16,0,0,1,0,.54Z" transform="translate(-8.99 -7.01)"/><path class="cls-8" d="M392.41,91.51a.32.32,0,0,1-.08.2.5.5,0,0,1-.23.13,2,2,0,0,1-.44.09,8.42,8.42,0,0,1-1.42,0,2,2,0,0,1-.44-.09.54.54,0,0,1-.24-.13.31.31,0,0,1-.07-.2v-13a.31.31,0,0,1,.07-.2.54.54,0,0,1,.24-.13,2.09,2.09,0,0,1,.45-.09,6.67,6.67,0,0,1,.7,0,7,7,0,0,1,.71,0,2,2,0,0,1,.44.09.5.5,0,0,1,.23.13.32.32,0,0,1,.08.2v13Z" transform="translate(-8.99 -7.01)"/><path class="cls-8" d="M408.37,84.85a10,10,0,0,1-.44,3.06,5.9,5.9,0,0,1-1.32,2.29,5.66,5.66,0,0,1-2.15,1.44,8.27,8.27,0,0,1-3,.5,9.1,9.1,0,0,1-2.91-.43,5,5,0,0,1-2.07-1.28,5.33,5.33,0,0,1-1.24-2.19,10.54,10.54,0,0,1-.42-3.15,9.72,9.72,0,0,1,.44-3,6.09,6.09,0,0,1,1.32-2.27,5.72,5.72,0,0,1,2.16-1.43,8.08,8.08,0,0,1,3-.5,8.93,8.93,0,0,1,2.86.41,5.08,5.08,0,0,1,2.08,1.28,5.51,5.51,0,0,1,1.25,2.17,9.94,9.94,0,0,1,.43,3.11Zm-3.05.14a10,10,0,0,0-.18-2,4.24,4.24,0,0,0-.6-1.52,2.83,2.83,0,0,0-1.13-1,4,4,0,0,0-1.77-.35,3.81,3.81,0,0,0-1.78.39,3.24,3.24,0,0,0-1.16,1,4.13,4.13,0,0,0-.62,1.52A9,9,0,0,0,397.9,85a11.32,11.32,0,0,0,.17,2,4.43,4.43,0,0,0,.6,1.54,2.78,2.78,0,0,0,1.12,1,4.22,4.22,0,0,0,1.78.33,3.67,3.67,0,0,0,1.78-.38,3.15,3.15,0,0,0,1.16-1,4.24,4.24,0,0,0,.63-1.54,9.34,9.34,0,0,0,.18-1.87Z" transform="translate(-8.99 -7.01)"/><path class="cls-8" d="M422.61,90.91a1,1,0,0,1-.09.44.87.87,0,0,1-.24.32.85.85,0,0,1-.35.19,1.45,1.45,0,0,1-.41.06h-1.24a2.7,2.7,0,0,1-.68-.08,1.4,1.4,0,0,1-.51-.27,2.22,2.22,0,0,1-.46-.53,7.6,7.6,0,0,1-.5-.87l-3.55-6.44c-.21-.39-.41-.8-.63-1.25s-.4-.87-.57-1.29h0q0,.77.06,1.53c0,.5,0,1,0,1.57V91.5a.36.36,0,0,1-.06.2.7.7,0,0,1-.21.14,1.68,1.68,0,0,1-.41.09,7.06,7.06,0,0,1-1.3,0,1.41,1.41,0,0,1-.39-.09.41.41,0,0,1-.2-.14.36.36,0,0,1-.06-.2V79.12a.88.88,0,0,1,.31-.75,1.11,1.11,0,0,1,.74-.25h1.56a3.55,3.55,0,0,1,.71.06,1.69,1.69,0,0,1,.51.23,1.86,1.86,0,0,1,.43.45,5.72,5.72,0,0,1,.41.69l2.78,5,.47.91c.16.29.32.58.46.88s.29.58.43.87.28.57.41.85h0c0-.5,0-1-.05-1.55s0-1.06,0-1.55V78.53a.33.33,0,0,1,.06-.19.47.47,0,0,1,.22-.15,1.39,1.39,0,0,1,.41-.09,5.86,5.86,0,0,1,.66,0,5.53,5.53,0,0,1,.63,0,1.12,1.12,0,0,1,.39.09.38.38,0,0,1,.19.15.33.33,0,0,1,.06.19V90.91Z" transform="translate(-8.99 -7.01)"/><path class="cls-8" d="M433.46,91.54a.26.26,0,0,1-.07.18.42.42,0,0,1-.22.14,2.87,2.87,0,0,1-.42.08l-.68,0-.67,0a2.78,2.78,0,0,1-.43-.08.42.42,0,0,1-.22-.14.26.26,0,0,1-.07-.18V82.05a.24.24,0,0,1,.07-.18.37.37,0,0,1,.22-.14,1.88,1.88,0,0,1,.43-.09,4.14,4.14,0,0,1,.67,0,4.36,4.36,0,0,1,.68,0,1.9,1.9,0,0,1,.42.09.37.37,0,0,1,.22.14.24.24,0,0,1,.07.18v9.49Zm.23-12.74a1.47,1.47,0,0,1-.34,1.12,2.82,2.82,0,0,1-2.55,0,1.45,1.45,0,0,1-.32-1.07,1.5,1.5,0,0,1,.34-1.13,1.88,1.88,0,0,1,1.27-.31,2,2,0,0,1,1.27.3,1.42,1.42,0,0,1,.33,1.08Z" transform="translate(-8.99 -7.01)"/><path class="cls-8" d="M445.65,91.54a.26.26,0,0,1-.07.18.47.47,0,0,1-.22.14,2.57,2.57,0,0,1-.43.08l-.66,0-.69,0a2.78,2.78,0,0,1-.43-.08.52.52,0,0,1-.22-.14.3.3,0,0,1-.06-.18V86.12a4.4,4.4,0,0,0-.11-1.09,2.07,2.07,0,0,0-.3-.67,1.35,1.35,0,0,0-.51-.44,1.58,1.58,0,0,0-.74-.16,1.91,1.91,0,0,0-1.07.38A5.83,5.83,0,0,0,439,85.22v6.32a.26.26,0,0,1-.07.18.42.42,0,0,1-.22.14,2.78,2.78,0,0,1-.43.08l-.67,0-.68,0a2.87,2.87,0,0,1-.42-.08.42.42,0,0,1-.22-.14.26.26,0,0,1-.07-.18V82a.41.41,0,0,1,.05-.19.53.53,0,0,1,.2-.13,2.33,2.33,0,0,1,.37-.08,4.45,4.45,0,0,1,.57,0,4.51,4.51,0,0,1,.58,0,1.92,1.92,0,0,1,.37.08.52.52,0,0,1,.18.13.41.41,0,0,1,.05.19v1.1a6.32,6.32,0,0,1,1.67-1.28,4.22,4.22,0,0,1,3.45-.1,3,3,0,0,1,1.12.87,3.38,3.38,0,0,1,.61,1.28,7,7,0,0,1,.19,1.77v5.87Z" transform="translate(-8.99 -7.01)"/><path class="cls-8" d="M454,90.6a3.32,3.32,0,0,1-.06.72.81.81,0,0,1-.17.35.72.72,0,0,1-.29.18A2.39,2.39,0,0,1,453,92a4.27,4.27,0,0,1-.57.09,6.08,6.08,0,0,1-.61,0,4.77,4.77,0,0,1-1.44-.2,2.33,2.33,0,0,1-1-.62,2.55,2.55,0,0,1-.59-1.06,5.6,5.6,0,0,1-.19-1.51V83.85h-1.19a.34.34,0,0,1-.32-.25,2.13,2.13,0,0,1-.12-.84,3.74,3.74,0,0,1,0-.52,1.09,1.09,0,0,1,.09-.34.37.37,0,0,1,.14-.18.38.38,0,0,1,.19,0h1.18V79.54a.33.33,0,0,1,.06-.19.61.61,0,0,1,.23-.14,1.77,1.77,0,0,1,.43-.09,6.54,6.54,0,0,1,.67,0,6.75,6.75,0,0,1,.68,0,1.88,1.88,0,0,1,.43.09.56.56,0,0,1,.22.14.34.34,0,0,1,.07.19v2.13h2.13a.42.42,0,0,1,.2,0,.54.54,0,0,1,.14.18,1.55,1.55,0,0,1,.08.34,3.74,3.74,0,0,1,0,.52,2.38,2.38,0,0,1-.11.84c-.08.17-.18.25-.32.25h-2.15v4.46a2.17,2.17,0,0,0,.25,1.17,1,1,0,0,0,.9.39,1.64,1.64,0,0,0,.4,0,1.26,1.26,0,0,0,.31-.09,1.12,1.12,0,0,0,.24-.08.59.59,0,0,1,.17,0,.28.28,0,0,1,.12,0,.25.25,0,0,1,.1.15,2.6,2.6,0,0,1,.06.3,3.28,3.28,0,0,1,0,.49Z" transform="translate(-8.99 -7.01)"/><path class="cls-8" d="M465.74,86.69a7.07,7.07,0,0,1-.33,2.21,4.54,4.54,0,0,1-1,1.72,4.36,4.36,0,0,1-1.69,1.12,7.37,7.37,0,0,1-4.67,0,4,4,0,0,1-1.61-1,4.14,4.14,0,0,1-.95-1.65,7.24,7.24,0,0,1-.31-2.23,7.09,7.09,0,0,1,.33-2.22,4.47,4.47,0,0,1,2.7-2.84,6.62,6.62,0,0,1,2.37-.39,7.15,7.15,0,0,1,2.3.34,4.2,4.2,0,0,1,1.61,1,4.34,4.34,0,0,1,.95,1.65,7.66,7.66,0,0,1,.3,2.25Zm-2.85.1a6.46,6.46,0,0,0-.11-1.29,2.88,2.88,0,0,0-.4-1,1.91,1.91,0,0,0-.73-.68,2.41,2.41,0,0,0-1.17-.25,2.68,2.68,0,0,0-1.09.22,2,2,0,0,0-.76.64,3,3,0,0,0-.45,1,5.58,5.58,0,0,0-.15,1.35,6.43,6.43,0,0,0,.12,1.29,2.88,2.88,0,0,0,.4,1,1.84,1.84,0,0,0,.73.68,2.89,2.89,0,0,0,2.26,0,2,2,0,0,0,.77-.63,3,3,0,0,0,.44-1,6,6,0,0,0,.14-1.35Z" transform="translate(-8.99 -7.01)"/><path class="cls-8" d="M481.71,87.76a4.14,4.14,0,0,1-.42,1.91A4,4,0,0,1,480.15,91a5.08,5.08,0,0,1-1.68.83,7.59,7.59,0,0,1-2.06.28A7.35,7.35,0,0,1,475,92a7.86,7.86,0,0,1-1.12-.29,5,5,0,0,1-.82-.35,2.47,2.47,0,0,1-.47-.32.88.88,0,0,1-.2-.41,3,3,0,0,1-.06-.75,4.45,4.45,0,0,1,0-.55,1.43,1.43,0,0,1,.07-.36.44.44,0,0,1,.13-.2.34.34,0,0,1,.2-.06,1,1,0,0,1,.44.18,6.37,6.37,0,0,0,.72.39,7,7,0,0,0,1.06.39,5.05,5.05,0,0,0,1.42.18,3.43,3.43,0,0,0,.95-.12,2.41,2.41,0,0,0,.72-.35,1.6,1.6,0,0,0,.45-.55,1.7,1.7,0,0,0,.15-.73,1.28,1.28,0,0,0-.26-.8,2.6,2.6,0,0,0-.7-.6,7.94,7.94,0,0,0-1-.49l-1.11-.48a9.12,9.12,0,0,1-1.12-.58,4.55,4.55,0,0,1-1-.78,3.56,3.56,0,0,1-1-2.55A3.75,3.75,0,0,1,473,80.1a3.62,3.62,0,0,1,1-1.24,4.4,4.4,0,0,1,1.52-.74,7.1,7.1,0,0,1,1.87-.24,7,7,0,0,1,1,.07,7.92,7.92,0,0,1,.95.2,5.5,5.5,0,0,1,.79.29,2.34,2.34,0,0,1,.45.27,1,1,0,0,1,.15.18,1.24,1.24,0,0,1,.06.2,2,2,0,0,1,0,.3c0,.13,0,.28,0,.47s0,.37,0,.52a1.58,1.58,0,0,1-.06.35.42.42,0,0,1-.11.2.29.29,0,0,1-.19.06,1,1,0,0,1-.39-.15l-.65-.32a6.65,6.65,0,0,0-.9-.32,3.93,3.93,0,0,0-1.11-.14,2.57,2.57,0,0,0-.83.11,1.65,1.65,0,0,0-.59.31,1.19,1.19,0,0,0-.36.47,1.46,1.46,0,0,0-.11.58,1.22,1.22,0,0,0,.26.8,2.57,2.57,0,0,0,.69.6,7.79,7.79,0,0,0,1,.48l1.12.49a10,10,0,0,1,1.13.58,4.43,4.43,0,0,1,1,.78,3.56,3.56,0,0,1,.7,1.06,3.74,3.74,0,0,1,.26,1.44Z" transform="translate(-8.99 -7.01)"/><path class="cls-8" d="M495.57,86.76a6.15,6.15,0,0,1-.39,2.26,4.34,4.34,0,0,1-1.13,1.7,5,5,0,0,1-1.86,1,7.9,7.9,0,0,1-2.54.37,8.23,8.23,0,0,1-2.42-.33,4.79,4.79,0,0,1-1.81-1,4.3,4.3,0,0,1-1.13-1.65,6.22,6.22,0,0,1-.39-2.3V78.5a.36.36,0,0,1,.06-.2.54.54,0,0,1,.24-.13,2,2,0,0,1,.45-.09,6.67,6.67,0,0,1,.7,0,6.47,6.47,0,0,1,.69,0,1.86,1.86,0,0,1,.44.09.54.54,0,0,1,.24.13.31.31,0,0,1,.07.2v8.14a4.29,4.29,0,0,0,.21,1.42,2.52,2.52,0,0,0,.61,1,2.47,2.47,0,0,0,.94.59,3.59,3.59,0,0,0,1.22.2,3.32,3.32,0,0,0,1.22-.21,2.32,2.32,0,0,0,.92-.59,2.57,2.57,0,0,0,.58-1,3.71,3.71,0,0,0,.21-1.29V78.5a.31.31,0,0,1,.07-.2.45.45,0,0,1,.23-.13,2,2,0,0,1,.44-.09,7,7,0,0,1,.71,0,6.47,6.47,0,0,1,.69,0,1.88,1.88,0,0,1,.43.09.45.45,0,0,1,.23.13.31.31,0,0,1,.07.2v8.26Z" transform="translate(-8.99 -7.01)"/><path class="cls-8" d="M508.58,89.81c0,.18,0,.33,0,.46a2.4,2.4,0,0,1-.05.32.79.79,0,0,1-.09.23,1.3,1.3,0,0,1-.17.21,2.41,2.41,0,0,1-.47.32,8.06,8.06,0,0,1-.85.36,9.16,9.16,0,0,1-1.15.29,8.74,8.74,0,0,1-1.4.11,7.63,7.63,0,0,1-2.65-.43,5.2,5.2,0,0,1-2-1.31,5.75,5.75,0,0,1-1.27-2.16,9.51,9.51,0,0,1-.44-3,9.12,9.12,0,0,1,.49-3.12,6.28,6.28,0,0,1,1.36-2.29,5.58,5.58,0,0,1,2.09-1.4,7.27,7.27,0,0,1,2.69-.48,6.12,6.12,0,0,1,1.14.1,5.86,5.86,0,0,1,1,.25,5.18,5.18,0,0,1,.85.35,2.64,2.64,0,0,1,.52.35,1.76,1.76,0,0,1,.21.24.62.62,0,0,1,.08.24,1.8,1.8,0,0,1,.06.36c0,.13,0,.29,0,.49s0,.4,0,.55a1.38,1.38,0,0,1-.08.36.44.44,0,0,1-.13.2.28.28,0,0,1-.18.06.81.81,0,0,1-.41-.18,5.5,5.5,0,0,0-.66-.42,5.43,5.43,0,0,0-1-.41,4,4,0,0,0-1.33-.19,3.23,3.23,0,0,0-1.51.34,3.16,3.16,0,0,0-1.14,1,4.49,4.49,0,0,0-.71,1.51,7.59,7.59,0,0,0-.24,2,7.31,7.31,0,0,0,.26,2.1,3.79,3.79,0,0,0,.74,1.46,2.84,2.84,0,0,0,1.15.85,3.94,3.94,0,0,0,1.53.29,4.48,4.48,0,0,0,1.34-.18,5.48,5.48,0,0,0,1-.38c.27-.14.49-.27.66-.38a.82.82,0,0,1,.4-.18.3.3,0,0,1,.18,0,.33.33,0,0,1,.11.17,1.32,1.32,0,0,1,.06.36,4.93,4.93,0,0,1,0,.61Z" transform="translate(-8.99 -7.01)"/><path class="cls-8" d="M520.55,89.81c0,.18,0,.33,0,.46a2.4,2.4,0,0,1,0,.32.79.79,0,0,1-.09.23,1.45,1.45,0,0,1-.18.21,2.41,2.41,0,0,1-.47.32,6.58,6.58,0,0,1-.85.36,8.57,8.57,0,0,1-1.14.29,8.74,8.74,0,0,1-1.4.11,7.63,7.63,0,0,1-2.65-.43,5.2,5.2,0,0,1-2-1.31,5.63,5.63,0,0,1-1.27-2.16,9.24,9.24,0,0,1-.44-3,9.38,9.38,0,0,1,.48-3.12,6.57,6.57,0,0,1,1.36-2.29,5.66,5.66,0,0,1,2.09-1.4,7.27,7.27,0,0,1,2.69-.48,6.15,6.15,0,0,1,1.15.1,5.86,5.86,0,0,1,1,.25,6,6,0,0,1,.85.35,3.47,3.47,0,0,1,.52.35,1.12,1.12,0,0,1,.2.24.85.85,0,0,1,.09.24,3.13,3.13,0,0,1,0,.36c0,.13,0,.29,0,.49s0,.4,0,.55a2,2,0,0,1-.08.36.53.53,0,0,1-.13.2.3.3,0,0,1-.18.06.8.8,0,0,1-.42-.18,6.19,6.19,0,0,0-.65-.42,5.24,5.24,0,0,0-1-.41,4,4,0,0,0-1.32-.19,3.27,3.27,0,0,0-1.52.34,3.21,3.21,0,0,0-1.13,1,4.5,4.5,0,0,0-.72,1.51,7.59,7.59,0,0,0-.24,2,7.68,7.68,0,0,0,.26,2.1,4.09,4.09,0,0,0,.74,1.46,2.94,2.94,0,0,0,1.16.85,3.9,3.9,0,0,0,1.53.29,4.41,4.41,0,0,0,1.33-.18,5.19,5.19,0,0,0,1-.38c.27-.14.49-.27.67-.38a.78.78,0,0,1,.4-.18.29.29,0,0,1,.29.22,1.89,1.89,0,0,1,.06.36,5.26,5.26,0,0,1,0,.61Z" transform="translate(-8.99 -7.01)"/><path class="cls-8" d="M531.1,90.79a4,4,0,0,1,0,.52,1.28,1.28,0,0,1-.09.34.4.4,0,0,1-.13.19.33.33,0,0,1-.19.06H523.5a.92.92,0,0,1-.61-.21.87.87,0,0,1-.25-.68V79a.87.87,0,0,1,.25-.68.92.92,0,0,1,.61-.2h7.14a.31.31,0,0,1,.18,0,.48.48,0,0,1,.13.19,1.9,1.9,0,0,1,.08.34,4.52,4.52,0,0,1,0,1,1.23,1.23,0,0,1-.08.33.48.48,0,0,1-.13.19.32.32,0,0,1-.18.06h-5.1v3.36h4.3a.29.29,0,0,1,.18,0,.49.49,0,0,1,.14.19,1.06,1.06,0,0,1,.08.33,3.43,3.43,0,0,1,0,.5,3.58,3.58,0,0,1,0,.51,1.14,1.14,0,0,1-.08.32.45.45,0,0,1-.14.18.37.37,0,0,1-.18,0h-4.3v3.88h5.13a.33.33,0,0,1,.19.06.4.4,0,0,1,.13.19,1.2,1.2,0,0,1,.09.33,4.1,4.1,0,0,1,0,.52Z" transform="translate(-8.99 -7.01)"/><path class="cls-8" d="M541.94,87.76a4.14,4.14,0,0,1-.42,1.91A4,4,0,0,1,540.38,91a5.08,5.08,0,0,1-1.68.83,7.59,7.59,0,0,1-2.06.28,7.35,7.35,0,0,1-1.37-.12,7.86,7.86,0,0,1-1.12-.29,5,5,0,0,1-.82-.35,2.47,2.47,0,0,1-.47-.32.88.88,0,0,1-.2-.41,3.51,3.51,0,0,1-.06-.75,4.45,4.45,0,0,1,0-.55,2.08,2.08,0,0,1,.07-.36.53.53,0,0,1,.13-.2.34.34,0,0,1,.2-.06,1,1,0,0,1,.44.18,7.39,7.39,0,0,0,.72.39,7.47,7.47,0,0,0,1.06.39,5.05,5.05,0,0,0,1.42.18,3.43,3.43,0,0,0,1-.12,2.3,2.3,0,0,0,.72-.35,1.5,1.5,0,0,0,.45-.55,1.7,1.7,0,0,0,.15-.73,1.22,1.22,0,0,0-.26-.8,2.6,2.6,0,0,0-.7-.6,8.54,8.54,0,0,0-1-.49l-1.12-.48a9.12,9.12,0,0,1-1.12-.58,4.55,4.55,0,0,1-1-.78,3.5,3.5,0,0,1-.95-2.55,3.75,3.75,0,0,1,.38-1.74,3.62,3.62,0,0,1,1-1.24,4.45,4.45,0,0,1,1.53-.74,7.33,7.33,0,0,1,2.87-.17,7.92,7.92,0,0,1,1,.2,5.5,5.5,0,0,1,.79.29,2.34,2.34,0,0,1,.45.27,1,1,0,0,1,.15.18,1.11,1.11,0,0,1,.07.2,2.16,2.16,0,0,1,0,.3c0,.13,0,.28,0,.47s0,.37,0,.52a1.58,1.58,0,0,1-.06.35.35.35,0,0,1-.11.2.29.29,0,0,1-.19.06,1,1,0,0,1-.39-.15l-.65-.32a6.65,6.65,0,0,0-.9-.32,3.93,3.93,0,0,0-1.11-.14,2.57,2.57,0,0,0-.83.11,1.65,1.65,0,0,0-.59.31,1.19,1.19,0,0,0-.36.47,1.66,1.66,0,0,0-.11.58,1.22,1.22,0,0,0,.26.8,2.48,2.48,0,0,0,.7.6,7.62,7.62,0,0,0,1,.48l1.12.49a9.25,9.25,0,0,1,1.13.58,4.43,4.43,0,0,1,1,.78,3.56,3.56,0,0,1,.7,1.06,3.74,3.74,0,0,1,.26,1.44Z" transform="translate(-8.99 -7.01)"/><path class="cls-8" d="M552.64,87.76a4.14,4.14,0,0,1-.42,1.91A4.07,4.07,0,0,1,551.08,91a5.08,5.08,0,0,1-1.68.83,7.59,7.59,0,0,1-2.06.28A7.47,7.47,0,0,1,546,92a8.63,8.63,0,0,1-1.12-.29,5.29,5.29,0,0,1-.81-.35,2.18,2.18,0,0,1-.47-.32.8.8,0,0,1-.21-.41,3.51,3.51,0,0,1-.06-.75c0-.22,0-.4,0-.55a1.38,1.38,0,0,1,.08-.36.37.37,0,0,1,.13-.2.31.31,0,0,1,.19-.06.92.92,0,0,1,.44.18,6.62,6.62,0,0,0,.73.39,6.89,6.89,0,0,0,1,.39,5.13,5.13,0,0,0,1.43.18,3.48,3.48,0,0,0,.95-.12,2.24,2.24,0,0,0,.71-.35,1.41,1.41,0,0,0,.45-.55,1.7,1.7,0,0,0,.16-.73,1.23,1.23,0,0,0-.27-.8,2.41,2.41,0,0,0-.69-.6,8.74,8.74,0,0,0-1-.49l-1.12-.48a9.77,9.77,0,0,1-1.11-.58,4.32,4.32,0,0,1-1-.78,3.48,3.48,0,0,1-.7-1.07,4.25,4.25,0,0,1,.12-3.22,3.64,3.64,0,0,1,1-1.24,4.4,4.4,0,0,1,1.52-.74,7.38,7.38,0,0,1,2.88-.17,8.36,8.36,0,0,1,.95.2,5.82,5.82,0,0,1,.78.29,1.82,1.82,0,0,1,.45.27.54.54,0,0,1,.15.18.66.66,0,0,1,.07.2,2,2,0,0,1,0,.3c0,.13,0,.28,0,.47s0,.37,0,.52a2.66,2.66,0,0,1,0,.35.53.53,0,0,1-.11.2.32.32,0,0,1-.2.06.89.89,0,0,1-.38-.15l-.66-.32a6.49,6.49,0,0,0-.89-.32,4,4,0,0,0-1.12-.14,2.61,2.61,0,0,0-.83.11,1.74,1.74,0,0,0-.59.31,1.08,1.08,0,0,0-.35.47,1.47,1.47,0,0,0-.12.58,1.28,1.28,0,0,0,.26.8,2.79,2.79,0,0,0,.7.6,7.62,7.62,0,0,0,1,.48l1.13.49a11,11,0,0,1,1.13.58,4.37,4.37,0,0,1,1,.78,3.46,3.46,0,0,1,1,2.5Z" transform="translate(-8.99 -7.01)"/></svg>